{
	"asset":{
		"generator":"Khronos glTF Blender I/O v4.1.63",
		"version":"2.0"
	},
	"scene":0,
	"scenes":[
		{
			"name":"Scene",
			"nodes":[
				0
			]
		}
	],
	"nodes":[
		{
			"mesh":0,
			"name":"Object_2",
			"rotation":[
				0,
				-0.7071068286895752,
				-0.7071068286895752,
				3.090862321641907e-08
			],
			"scale":[
				0.20000000298023224,
				0.20000000298023224,
				0.20000000298023224
			],
			"translation":[
				-11,
				0,
				7.800000190734863
			]
		}
	],
	"materials":[
		{
			"doubleSided":true,
			"emissiveFactor":[
				0.6000000238418579,
				0.6000000238418579,
				0.6000000238418579
			],
			"emissiveTexture":{
				"index":0
			},
			"name":"Standard00FF80",
			"pbrMetallicRoughness":{
				"baseColorTexture":{
					"index":1
				},
				"metallicFactor":0,
				"roughnessFactor":0.6000000238418579
			}
		}
	],
	"meshes":[
		{
			"name":"Object_0",
			"primitives":[
				{
					"attributes":{
						"POSITION":0,
						"NORMAL":1,
						"TEXCOORD_0":2
					},
					"indices":3,
					"material":0
				}
			]
		}
	],
	"textures":[
		{
			"sampler":0,
			"source":0
		},
		{
			"sampler":0,
			"source":0
		}
	],
	"images":[
		{
			"mimeType":"image/png",
			"name":"Standard00FF80_baseColor",
			"uri":"Standard00FF80_baseColor.png"
		}
	],
	"accessors":[
		{
			"bufferView":0,
			"componentType":5126,
			"count":1244,
			"max":[
				-4.508399963378906,
				-14.683300018310547,
				46.13930130004883
			],
			"min":[
				-114.99459838867188,
				-63.32350158691406,
				0.018799999728798866
			],
			"type":"VEC3"
		},
		{
			"bufferView":1,
			"componentType":5126,
			"count":1244,
			"type":"VEC3"
		},
		{
			"bufferView":2,
			"componentType":5126,
			"count":1244,
			"type":"VEC2"
		},
		{
			"bufferView":3,
			"componentType":5123,
			"count":4572,
			"type":"SCALAR"
		}
	],
	"bufferViews":[
		{
			"buffer":0,
			"byteLength":14928,
			"byteOffset":0,
			"target":34962
		},
		{
			"buffer":0,
			"byteLength":14928,
			"byteOffset":14928,
			"target":34962
		},
		{
			"buffer":0,
			"byteLength":9952,
			"byteOffset":29856,
			"target":34962
		},
		{
			"buffer":0,
			"byteLength":9144,
			"byteOffset":39808,
			"target":34963
		}
	],
	"samplers":[
		{
			"magFilter":9729,
			"minFilter":9987
		}
	],
	"buffers":[
		{
			"byteLength":48952,
			"uri":"benz.bin"
		}
	]
}
